<svg xmlns="http://www.w3.org/2000/svg" xmlns:xlink="http://www.w3.org/1999/xlink" width="120" zoomAndPan="magnify" viewBox="0 0 90 89.999999" height="120" preserveAspectRatio="xMidYMid meet" version="1.0"><defs><clipPath id="a98126485f"><path d="M 10.003906 9 L 39 9 L 39 27 L 10.003906 27 Z M 10.003906 9 " clip-rule="nonzero"/></clipPath><clipPath id="9d7b69d3a7"><path d="M 10.003906 16 L 39 16 L 39 81 L 10.003906 81 Z M 10.003906 16 " clip-rule="nonzero"/></clipPath><clipPath id="8a9da14d61"><path d="M 64 24 L 79.753906 24 L 79.753906 51 L 64 51 Z M 64 24 " clip-rule="nonzero"/></clipPath><clipPath id="6c7cbe9ec7"><path d="M 50 17 L 79.753906 17 L 79.753906 35 L 50 35 Z M 50 17 " clip-rule="nonzero"/></clipPath></defs><g clip-path="url(#a98126485f)"><path fill="#ffffff" d="M 24.519531 26.675781 C 24.355469 26.675781 24.1875 26.632812 24.039062 26.550781 L 23.945312 26.496094 L 10.484375 18.691406 C 10.191406 18.519531 10.011719 18.207031 10.007812 17.871094 C 10.003906 17.53125 10.183594 17.214844 10.472656 17.042969 L 23.617188 9.183594 C 23.917969 9.003906 24.296875 9.003906 24.601562 9.183594 L 37.996094 17.214844 C 38.285156 17.386719 38.460938 17.699219 38.460938 18.035156 C 38.457031 18.375 38.28125 18.683594 37.988281 18.855469 L 25.007812 26.542969 C 24.855469 26.632812 24.6875 26.675781 24.519531 26.675781 Z M 12.851562 17.851562 L 24.515625 24.613281 L 35.632812 18.027344 L 24.109375 11.117188 Z M 12.851562 17.851562 " fill-opacity="1" fill-rule="nonzero"/></g><g clip-path="url(#9d7b69d3a7)"><path fill="#ffffff" d="M 37.886719 81 C 37.726562 81 37.566406 80.960938 37.421875 80.878906 L 10.5 65.933594 C 10.195312 65.765625 10.007812 65.445312 10.007812 65.097656 L 10.007812 17.863281 C 10.007812 17.519531 10.191406 17.203125 10.488281 17.035156 C 10.78125 16.863281 11.148438 16.863281 11.445312 17.035156 L 24.90625 24.839844 C 25.199219 25.011719 25.382812 25.324219 25.382812 25.667969 L 25.382812 56.617188 L 38.367188 64.179688 C 38.660156 64.351562 38.84375 64.667969 38.84375 65.007812 L 38.84375 80.042969 C 38.84375 80.382812 38.664062 80.695312 38.371094 80.867188 C 38.222656 80.957031 38.054688 81 37.886719 81 Z M 11.921875 64.535156 L 36.929688 78.417969 L 36.929688 65.554688 L 23.941406 57.992188 C 23.648438 57.820312 23.46875 57.503906 23.46875 57.164062 L 23.46875 26.21875 L 11.921875 19.523438 Z M 11.921875 64.535156 " fill-opacity="1" fill-rule="nonzero"/></g><path fill="#ffffff" d="M 24.425781 58.121094 C 24.261719 58.121094 24.097656 58.082031 23.953125 57.996094 C 23.652344 57.828125 23.46875 57.507812 23.46875 57.164062 L 23.46875 25.667969 C 23.46875 25.324219 23.652344 25.007812 23.945312 24.835938 C 24.070312 24.765625 24.207031 24.726562 24.34375 24.714844 L 37.015625 17.210938 C 37.308594 17.035156 37.671875 17.03125 37.972656 17.199219 C 38.269531 17.367188 38.457031 17.679688 38.460938 18.023438 L 38.84375 49.128906 C 38.847656 49.46875 38.667969 49.785156 38.375 49.960938 L 24.914062 57.988281 C 24.765625 58.078125 24.59375 58.121094 24.425781 58.121094 Z M 25.382812 26.320312 L 25.382812 55.480469 L 36.921875 48.601562 L 36.566406 19.699219 Z M 25.382812 26.320312 " fill-opacity="1" fill-rule="nonzero"/><path fill="#ffffff" d="M 37.886719 81 C 37.714844 81 37.546875 80.957031 37.398438 80.867188 C 37.105469 80.695312 36.929688 80.382812 36.929688 80.042969 L 36.929688 65.007812 C 36.929688 64.664062 37.113281 64.347656 37.410156 64.175781 L 64.808594 48.492188 C 65.105469 48.324219 65.46875 48.324219 65.765625 48.496094 C 66.058594 48.667969 66.242188 48.984375 66.242188 49.324219 L 66.242188 65.007812 C 66.242188 65.355469 66.050781 65.675781 65.746094 65.84375 L 38.347656 80.882812 C 38.203125 80.960938 38.042969 81 37.886719 81 Z M 38.84375 65.5625 L 38.84375 78.425781 L 64.328125 64.441406 L 64.328125 50.972656 Z M 38.84375 65.5625 " fill-opacity="1" fill-rule="nonzero"/><path fill="#ffffff" d="M 37.886719 65.964844 C 37.71875 65.964844 37.550781 65.921875 37.402344 65.832031 L 23.941406 57.992188 C 23.652344 57.820312 23.46875 57.507812 23.46875 57.171875 C 23.464844 56.832031 23.644531 56.515625 23.933594 56.34375 L 37.394531 48.316406 C 37.40625 48.3125 37.414062 48.304688 37.425781 48.300781 L 51.078125 40.828125 C 51.367188 40.667969 51.71875 40.671875 52.003906 40.832031 L 65.75 48.488281 C 66.050781 48.65625 66.238281 48.972656 66.242188 49.316406 C 66.242188 49.664062 66.058594 49.984375 65.757812 50.152344 L 38.359375 65.835938 C 38.214844 65.921875 38.050781 65.964844 37.886719 65.964844 Z M 26.308594 57.15625 L 37.890625 63.902344 L 63.339844 49.335938 L 51.535156 42.757812 L 38.359375 49.96875 Z M 26.308594 57.15625 " fill-opacity="1" fill-rule="nonzero"/><path fill="#ffffff" d="M 65.285156 50.28125 C 65.125 50.28125 64.964844 50.238281 64.820312 50.160156 L 51.074219 42.503906 C 50.769531 42.332031 50.582031 42.011719 50.582031 41.664062 L 50.628906 25.71875 C 50.628906 25.378906 50.8125 25.0625 51.105469 24.894531 C 51.402344 24.722656 51.765625 24.722656 52.058594 24.890625 L 65.757812 32.71875 C 66.058594 32.890625 66.242188 33.207031 66.242188 33.550781 L 66.242188 49.324219 C 66.242188 49.664062 66.0625 49.976562 65.769531 50.148438 C 65.621094 50.238281 65.453125 50.28125 65.285156 50.28125 Z M 52.496094 41.105469 L 64.328125 47.695312 L 64.328125 34.105469 L 52.535156 27.367188 Z M 52.496094 41.105469 " fill-opacity="1" fill-rule="nonzero"/><g clip-path="url(#8a9da14d61)"><path fill="#ffffff" d="M 65.285156 50.28125 C 65.117188 50.28125 64.949219 50.238281 64.800781 50.148438 C 64.507812 49.976562 64.328125 49.664062 64.328125 49.324219 L 64.328125 33.550781 C 64.328125 33.207031 64.511719 32.886719 64.8125 32.71875 L 78.554688 24.890625 C 78.851562 24.722656 79.214844 24.722656 79.511719 24.894531 C 79.804688 25.066406 79.988281 25.378906 79.988281 25.722656 L 79.988281 41.667969 C 79.988281 42.015625 79.796875 42.332031 79.496094 42.503906 L 65.75 50.160156 C 65.605469 50.238281 65.445312 50.28125 65.285156 50.28125 Z M 66.242188 34.105469 L 66.242188 47.695312 L 78.074219 41.105469 L 78.074219 27.367188 Z M 66.242188 34.105469 " fill-opacity="1" fill-rule="nonzero"/></g><g clip-path="url(#6c7cbe9ec7)"><path fill="#ffffff" d="M 65.285156 34.503906 C 65.121094 34.503906 64.957031 34.464844 64.808594 34.378906 L 51.109375 26.550781 C 50.8125 26.378906 50.628906 26.0625 50.628906 25.71875 C 50.628906 25.371094 50.816406 25.054688 51.117188 24.886719 L 64.816406 17.199219 C 65.105469 17.035156 65.460938 17.035156 65.75 17.199219 L 79.496094 24.886719 C 79.796875 25.054688 79.984375 25.371094 79.988281 25.71875 C 79.988281 26.0625 79.804688 26.382812 79.503906 26.550781 L 65.757812 34.378906 C 65.609375 34.464844 65.449219 34.503906 65.285156 34.503906 Z M 53.527344 25.726562 L 65.285156 32.449219 L 77.082031 25.726562 L 65.285156 19.128906 Z M 53.527344 25.726562 " fill-opacity="1" fill-rule="nonzero"/></g></svg>