<svg xmlns="http://www.w3.org/2000/svg" xmlns:xlink="http://www.w3.org/1999/xlink" width="120" zoomAndPan="magnify" viewBox="0 0 90 89.999999" height="120" preserveAspectRatio="xMidYMid meet" version="1.0"><defs><clipPath id="1f0920d36e"><path d="M 10.003906 9 L 39 9 L 39 27 L 10.003906 27 Z M 10.003906 9 " clip-rule="nonzero"/></clipPath><clipPath id="b00d7af3c4"><path d="M 10.003906 16 L 39 16 L 39 81 L 10.003906 81 Z M 10.003906 16 " clip-rule="nonzero"/></clipPath><clipPath id="a5370cb2fd"><path d="M 64 24 L 79.753906 24 L 79.753906 51 L 64 51 Z M 64 24 " clip-rule="nonzero"/></clipPath><clipPath id="188b48b2bf"><path d="M 50 17 L 79.753906 17 L 79.753906 35 L 50 35 Z M 50 17 " clip-rule="nonzero"/></clipPath></defs><g clip-path="url(#1f0920d36e)"><path fill="#ef0a1b" d="M 24.46875 26.675781 C 24.304688 26.675781 24.140625 26.632812 23.992188 26.550781 L 23.898438 26.496094 L 10.484375 18.691406 C 10.191406 18.519531 10.011719 18.207031 10.007812 17.871094 C 10.003906 17.53125 10.183594 17.214844 10.472656 17.042969 L 23.570312 9.183594 C 23.875 9.003906 24.25 9.003906 24.550781 9.183594 L 37.902344 17.214844 C 38.1875 17.386719 38.363281 17.699219 38.363281 18.035156 C 38.363281 18.375 38.183594 18.683594 37.894531 18.855469 L 24.957031 26.542969 C 24.804688 26.632812 24.636719 26.675781 24.46875 26.675781 Z M 12.839844 17.851562 L 24.464844 24.613281 L 35.546875 18.027344 L 24.058594 11.117188 Z M 12.839844 17.851562 " fill-opacity="1" fill-rule="nonzero"/></g><g clip-path="url(#b00d7af3c4)"><path fill="#ef0a1b" d="M 37.792969 81 C 37.632812 81 37.472656 80.960938 37.328125 80.878906 L 10.5 65.933594 C 10.195312 65.765625 10.007812 65.445312 10.007812 65.097656 L 10.007812 17.863281 C 10.007812 17.519531 10.191406 17.203125 10.484375 17.035156 C 10.78125 16.863281 11.144531 16.863281 11.4375 17.035156 L 24.855469 24.839844 C 25.148438 25.011719 25.332031 25.324219 25.332031 25.667969 L 25.332031 56.617188 L 38.273438 64.179688 C 38.566406 64.351562 38.746094 64.667969 38.746094 65.007812 L 38.746094 80.042969 C 38.746094 80.382812 38.566406 80.695312 38.277344 80.867188 C 38.125 80.957031 37.960938 81 37.792969 81 Z M 11.914062 64.535156 L 36.839844 78.417969 L 36.839844 65.554688 L 23.898438 57.992188 C 23.601562 57.820312 23.421875 57.503906 23.421875 57.164062 L 23.421875 26.21875 L 11.914062 19.523438 Z M 11.914062 64.535156 " fill-opacity="1" fill-rule="nonzero"/></g><path fill="#ef0a1b" d="M 24.375 58.121094 C 24.214844 58.121094 24.050781 58.082031 23.90625 57.996094 C 23.605469 57.828125 23.421875 57.507812 23.421875 57.164062 L 23.421875 25.667969 C 23.421875 25.324219 23.605469 25.007812 23.898438 24.835938 C 24.023438 24.765625 24.160156 24.726562 24.296875 24.714844 L 36.925781 17.210938 C 37.21875 17.035156 37.582031 17.03125 37.878906 17.199219 C 38.175781 17.367188 38.359375 17.679688 38.363281 18.023438 L 38.746094 49.128906 C 38.75 49.46875 38.574219 49.785156 38.28125 49.960938 L 24.863281 57.988281 C 24.714844 58.078125 24.546875 58.121094 24.375 58.121094 Z M 25.328125 26.320312 L 25.328125 55.480469 L 36.832031 48.601562 L 36.476562 19.699219 Z M 25.328125 26.320312 " fill-opacity="1" fill-rule="nonzero"/><path fill="#ef0a1b" d="M 37.792969 81 C 37.625 81 37.457031 80.957031 37.304688 80.867188 C 37.015625 80.695312 36.839844 80.382812 36.839844 80.042969 L 36.839844 65.007812 C 36.839844 64.664062 37.023438 64.347656 37.320312 64.175781 L 64.625 48.492188 C 64.921875 48.324219 65.285156 48.324219 65.578125 48.496094 C 65.871094 48.667969 66.050781 48.984375 66.050781 49.324219 L 66.050781 65.007812 C 66.050781 65.355469 65.863281 65.675781 65.558594 65.84375 L 38.25 80.882812 C 38.109375 80.960938 37.949219 81 37.792969 81 Z M 38.746094 65.5625 L 38.746094 78.425781 L 64.144531 64.441406 L 64.144531 50.972656 Z M 38.746094 65.5625 " fill-opacity="1" fill-rule="nonzero"/><path fill="#ef0a1b" d="M 37.792969 65.964844 C 37.625 65.964844 37.460938 65.921875 37.3125 65.832031 L 23.898438 57.992188 C 23.605469 57.820312 23.425781 57.507812 23.421875 57.171875 C 23.421875 56.832031 23.597656 56.515625 23.886719 56.34375 L 37.304688 48.316406 C 37.3125 48.3125 37.324219 48.304688 37.335938 48.300781 L 50.941406 40.828125 C 51.230469 40.667969 51.578125 40.671875 51.863281 40.832031 L 65.5625 48.488281 C 65.863281 48.65625 66.050781 48.972656 66.050781 49.316406 C 66.054688 49.664062 65.871094 49.984375 65.574219 50.152344 L 38.265625 65.835938 C 38.117188 65.921875 37.957031 65.964844 37.792969 65.964844 Z M 26.253906 57.15625 L 37.796875 63.902344 L 63.160156 49.335938 L 51.394531 42.757812 L 38.265625 49.96875 Z M 26.253906 57.15625 " fill-opacity="1" fill-rule="nonzero"/><path fill="#ef0a1b" d="M 65.097656 50.28125 C 64.9375 50.28125 64.78125 50.238281 64.636719 50.160156 L 50.9375 42.503906 C 50.632812 42.332031 50.445312 42.011719 50.445312 41.664062 L 50.492188 25.71875 C 50.492188 25.378906 50.675781 25.0625 50.96875 24.894531 C 51.261719 24.722656 51.625 24.722656 51.917969 24.890625 L 65.574219 32.71875 C 65.871094 32.890625 66.054688 33.207031 66.054688 33.550781 L 66.054688 49.324219 C 66.054688 49.664062 65.875 49.976562 65.582031 50.148438 C 65.433594 50.238281 65.265625 50.28125 65.097656 50.28125 Z M 52.355469 41.105469 L 64.144531 47.695312 L 64.144531 34.105469 L 52.394531 27.367188 Z M 52.355469 41.105469 " fill-opacity="1" fill-rule="nonzero"/><g clip-path="url(#a5370cb2fd)"><path fill="#ef0a1b" d="M 65.097656 50.28125 C 64.933594 50.28125 64.765625 50.238281 64.617188 50.148438 C 64.324219 49.976562 64.144531 49.664062 64.144531 49.324219 L 64.144531 33.550781 C 64.144531 33.207031 64.328125 32.886719 64.628906 32.71875 L 78.328125 24.890625 C 78.621094 24.722656 78.984375 24.722656 79.277344 24.894531 C 79.570312 25.066406 79.753906 25.378906 79.753906 25.722656 L 79.753906 41.667969 C 79.753906 42.015625 79.566406 42.332031 79.261719 42.503906 L 65.5625 50.160156 C 65.417969 50.238281 65.257812 50.28125 65.097656 50.28125 Z M 66.050781 34.105469 L 66.050781 47.695312 L 77.84375 41.105469 L 77.84375 27.367188 Z M 66.050781 34.105469 " fill-opacity="1" fill-rule="nonzero"/></g><g clip-path="url(#188b48b2bf)"><path fill="#ef0a1b" d="M 65.097656 34.503906 C 64.9375 34.503906 64.773438 34.464844 64.625 34.378906 L 50.972656 26.550781 C 50.675781 26.378906 50.492188 26.0625 50.492188 25.71875 C 50.492188 25.371094 50.679688 25.054688 50.980469 24.886719 L 64.632812 17.199219 C 64.921875 17.035156 65.273438 17.035156 65.566406 17.199219 L 79.265625 24.886719 C 79.566406 25.054688 79.75 25.371094 79.753906 25.71875 C 79.753906 26.0625 79.570312 26.382812 79.269531 26.550781 L 65.570312 34.378906 C 65.425781 34.464844 65.261719 34.503906 65.097656 34.503906 Z M 53.382812 25.726562 L 65.101562 32.449219 L 76.859375 25.726562 L 65.101562 19.128906 Z M 53.382812 25.726562 " fill-opacity="1" fill-rule="nonzero"/></g></svg>