<svg xmlns="http://www.w3.org/2000/svg" xmlns:xlink="http://www.w3.org/1999/xlink" width="150" zoomAndPan="magnify" viewBox="0 0 112.5 32.999998" height="44" preserveAspectRatio="xMidYMid meet" version="1.0"><defs><clipPath id="2de629df92"><path d="M 4.351562 1.882812 L 16 1.882812 L 16 10 L 4.351562 10 Z M 4.351562 1.882812 " clip-rule="nonzero"/></clipPath><clipPath id="2099802eeb"><path d="M 4.351562 5 L 17 5 L 17 31.003906 L 4.351562 31.003906 Z M 4.351562 5 " clip-rule="nonzero"/></clipPath><clipPath id="da9092f638"><path d="M 15 17 L 28 17 L 28 31.003906 L 15 31.003906 Z M 15 17 " clip-rule="nonzero"/></clipPath><clipPath id="f6388950c2"><path d="M 26 8 L 32.726562 8 L 32.726562 19 L 26 19 Z M 26 8 " clip-rule="nonzero"/></clipPath><clipPath id="3e338471bd"><path d="M 20 5 L 32.726562 5 L 32.726562 13 L 20 13 Z M 20 5 " clip-rule="nonzero"/></clipPath><clipPath id="5b94ab7c59"><path d="M 36.566406 8.527344 L 107.5 8.527344 L 107.5 26 L 36.566406 26 Z M 36.566406 8.527344 " clip-rule="nonzero"/></clipPath></defs><g clip-path="url(#2de629df92)"><path fill="#ef0a1b" d="M 10.238281 9.035156 C 10.171875 9.035156 10.105469 9.015625 10.042969 8.980469 L 10.003906 8.960938 L 4.546875 5.804688 C 4.429688 5.734375 4.355469 5.609375 4.355469 5.472656 C 4.355469 5.335938 4.425781 5.207031 4.542969 5.136719 L 9.871094 1.957031 C 9.996094 1.886719 10.148438 1.886719 10.269531 1.957031 L 15.703125 5.207031 C 15.820312 5.277344 15.890625 5.402344 15.890625 5.539062 C 15.890625 5.675781 15.816406 5.800781 15.699219 5.871094 L 10.4375 8.980469 C 10.375 9.015625 10.304688 9.035156 10.238281 9.035156 Z M 5.507812 5.464844 L 10.234375 8.199219 L 14.746094 5.535156 L 10.070312 2.742188 Z M 5.507812 5.464844 " fill-opacity="1" fill-rule="nonzero"/></g><g clip-path="url(#2099802eeb)"><path fill="#ef0a1b" d="M 15.65625 31.003906 C 15.59375 31.003906 15.527344 30.988281 15.46875 30.957031 L 4.554688 24.910156 C 4.429688 24.84375 4.355469 24.714844 4.355469 24.574219 L 4.355469 5.46875 C 4.355469 5.332031 4.429688 5.203125 4.550781 5.132812 C 4.667969 5.066406 4.816406 5.066406 4.9375 5.132812 L 10.394531 8.289062 C 10.515625 8.359375 10.589844 8.488281 10.589844 8.625 L 10.589844 21.140625 L 15.851562 24.203125 C 15.972656 24.269531 16.046875 24.398438 16.046875 24.535156 L 16.046875 30.617188 C 16.046875 30.753906 15.972656 30.882812 15.855469 30.953125 C 15.792969 30.988281 15.726562 31.003906 15.65625 31.003906 Z M 5.128906 24.347656 L 15.269531 29.960938 L 15.269531 24.757812 L 10.003906 21.699219 C 9.886719 21.628906 9.8125 21.503906 9.8125 21.363281 L 9.8125 8.847656 L 5.128906 6.140625 Z M 5.128906 24.347656 " fill-opacity="1" fill-rule="nonzero"/></g><path fill="#ef0a1b" d="M 10.199219 21.75 C 10.132812 21.75 10.066406 21.734375 10.007812 21.703125 C 9.886719 21.632812 9.8125 21.503906 9.8125 21.363281 L 9.8125 8.625 C 9.8125 8.488281 9.886719 8.359375 10.007812 8.289062 C 10.054688 8.261719 10.109375 8.246094 10.167969 8.238281 L 15.304688 5.203125 C 15.421875 5.132812 15.570312 5.132812 15.691406 5.199219 C 15.8125 5.269531 15.886719 5.394531 15.890625 5.53125 L 16.046875 18.113281 C 16.046875 18.253906 15.972656 18.378906 15.855469 18.453125 L 10.398438 21.695312 C 10.335938 21.734375 10.269531 21.75 10.199219 21.75 Z M 10.585938 8.890625 L 10.585938 20.683594 L 15.265625 17.902344 L 15.121094 6.210938 Z M 10.585938 8.890625 " fill-opacity="1" fill-rule="nonzero"/><g clip-path="url(#da9092f638)"><path fill="#ef0a1b" d="M 15.65625 31.003906 C 15.589844 31.003906 15.519531 30.988281 15.460938 30.949219 C 15.339844 30.882812 15.269531 30.753906 15.269531 30.617188 L 15.269531 24.535156 C 15.269531 24.398438 15.34375 24.269531 15.464844 24.199219 L 26.570312 17.859375 C 26.691406 17.789062 26.839844 17.789062 26.960938 17.859375 C 27.078125 17.929688 27.152344 18.054688 27.152344 18.195312 L 27.152344 24.535156 C 27.152344 24.675781 27.074219 24.808594 26.953125 24.875 L 15.84375 30.957031 C 15.785156 30.988281 15.722656 31.003906 15.65625 31.003906 Z M 16.046875 24.761719 L 16.046875 29.964844 L 26.378906 24.308594 L 26.378906 18.859375 Z M 16.046875 24.761719 " fill-opacity="1" fill-rule="nonzero"/></g><path fill="#ef0a1b" d="M 15.65625 24.921875 C 15.589844 24.921875 15.523438 24.90625 15.460938 24.871094 L 10.003906 21.699219 C 9.886719 21.628906 9.8125 21.503906 9.8125 21.367188 C 9.8125 21.230469 9.882812 21.101562 10 21.03125 L 15.457031 17.785156 C 15.460938 17.785156 15.464844 17.78125 15.472656 17.78125 L 21.007812 14.757812 C 21.121094 14.691406 21.265625 14.695312 21.382812 14.757812 L 26.953125 17.855469 C 27.074219 17.921875 27.152344 18.050781 27.152344 18.191406 C 27.152344 18.332031 27.078125 18.460938 26.957031 18.527344 L 15.851562 24.871094 C 15.789062 24.90625 15.722656 24.921875 15.65625 24.921875 Z M 10.964844 21.359375 L 15.660156 24.089844 L 25.976562 18.199219 L 21.191406 15.539062 L 15.847656 18.453125 Z M 10.964844 21.359375 " fill-opacity="1" fill-rule="nonzero"/><path fill="#ef0a1b" d="M 26.765625 18.582031 C 26.699219 18.582031 26.636719 18.5625 26.578125 18.53125 L 21.003906 15.433594 C 20.878906 15.367188 20.804688 15.234375 20.804688 15.09375 L 20.824219 8.644531 C 20.824219 8.507812 20.898438 8.382812 21.015625 8.3125 C 21.136719 8.242188 21.285156 8.242188 21.402344 8.3125 L 26.957031 11.476562 C 27.078125 11.546875 27.152344 11.675781 27.152344 11.8125 L 27.152344 18.195312 C 27.152344 18.332031 27.078125 18.457031 26.960938 18.527344 C 26.902344 18.5625 26.832031 18.582031 26.765625 18.582031 Z M 21.582031 14.871094 L 26.378906 17.535156 L 26.378906 12.039062 L 21.597656 9.3125 Z M 21.582031 14.871094 " fill-opacity="1" fill-rule="nonzero"/><g clip-path="url(#f6388950c2)"><path fill="#ef0a1b" d="M 26.765625 18.582031 C 26.695312 18.582031 26.628906 18.5625 26.570312 18.527344 C 26.449219 18.457031 26.378906 18.332031 26.378906 18.195312 L 26.378906 11.8125 C 26.378906 11.675781 26.453125 11.546875 26.574219 11.476562 L 32.144531 8.3125 C 32.265625 8.242188 32.414062 8.242188 32.53125 8.3125 C 32.652344 8.382812 32.726562 8.507812 32.726562 8.648438 L 32.726562 15.097656 C 32.726562 15.238281 32.648438 15.367188 32.527344 15.433594 L 26.953125 18.53125 C 26.894531 18.5625 26.828125 18.582031 26.765625 18.582031 Z M 27.152344 12.039062 L 27.152344 17.535156 L 31.949219 14.871094 L 31.949219 9.3125 Z M 27.152344 12.039062 " fill-opacity="1" fill-rule="nonzero"/></g><g clip-path="url(#3e338471bd)"><path fill="#ef0a1b" d="M 26.765625 12.199219 C 26.699219 12.199219 26.632812 12.183594 26.574219 12.148438 L 21.019531 8.984375 C 20.898438 8.914062 20.824219 8.785156 20.824219 8.644531 C 20.824219 8.507812 20.898438 8.378906 21.019531 8.308594 L 26.574219 5.199219 C 26.691406 5.132812 26.835938 5.132812 26.953125 5.199219 L 32.527344 8.308594 C 32.648438 8.378906 32.726562 8.507812 32.726562 8.644531 C 32.726562 8.785156 32.652344 8.914062 32.53125 8.984375 L 26.957031 12.148438 C 26.898438 12.183594 26.832031 12.199219 26.765625 12.199219 Z M 22 8.648438 L 26.765625 11.367188 L 31.546875 8.648438 L 26.765625 5.980469 Z M 22 8.648438 " fill-opacity="1" fill-rule="nonzero"/></g><g clip-path="url(#5b94ab7c59)"><path fill="#ff2d20" d="M 39.582031 8.527344 L 39.582031 23.179688 L 44.78125 23.179688 L 44.78125 25.703125 L 36.816406 25.703125 L 36.816406 8.527344 Z M 54.539062 15.8125 L 54.539062 14.269531 L 57.171875 14.269531 L 57.171875 25.707031 L 54.554688 25.707031 L 54.554688 24.15625 C 54.191406 24.730469 53.691406 25.175781 53.046875 25.492188 C 52.398438 25.828125 51.734375 25.988281 51.082031 25.988281 C 50.226562 25.988281 49.449219 25.828125 48.746094 25.511719 C 48.050781 25.203125 47.441406 24.769531 46.925781 24.203125 C 46.414062 23.640625 46.019531 23.007812 45.742188 22.296875 C 45.457031 21.550781 45.316406 20.78125 45.324219 19.980469 C 45.324219 19.179688 45.464844 18.410156 45.746094 17.695312 C 46.019531 16.972656 46.417969 16.328125 46.929688 15.761719 C 47.445312 15.191406 48.046875 14.753906 48.738281 14.4375 C 49.449219 14.121094 50.234375 13.960938 51.074219 13.960938 C 51.730469 13.960938 52.382812 14.128906 53.03125 14.453125 C 53.679688 14.78125 54.179688 15.226562 54.527344 15.800781 Z M 54.304688 21.386719 C 54.46875 20.9375 54.550781 20.46875 54.554688 19.988281 C 54.554688 19.492188 54.464844 19.035156 54.304688 18.589844 C 54.152344 18.15625 53.929688 17.769531 53.628906 17.425781 C 53.332031 17.097656 52.984375 16.835938 52.582031 16.652344 C 52.152344 16.449219 51.699219 16.351562 51.226562 16.351562 C 50.726562 16.351562 50.277344 16.460938 49.878906 16.65625 C 49.484375 16.84375 49.140625 17.101562 48.84375 17.425781 C 48.546875 17.769531 48.328125 18.15625 48.183594 18.589844 C 48.027344 19.042969 47.953125 19.507812 47.953125 19.988281 C 47.953125 20.476562 48.027344 20.941406 48.183594 21.386719 C 48.332031 21.832031 48.558594 22.210938 48.84375 22.53125 C 49.136719 22.867188 49.480469 23.132812 49.878906 23.324219 C 50.277344 23.515625 50.726562 23.617188 51.226562 23.617188 C 51.722656 23.617188 52.179688 23.523438 52.582031 23.324219 C 52.984375 23.136719 53.335938 22.871094 53.628906 22.535156 C 53.925781 22.199219 54.152344 21.816406 54.304688 21.394531 Z M 59.238281 25.707031 L 59.238281 14.269531 L 66.355469 14.269531 L 66.355469 16.898438 L 61.855469 16.898438 L 61.855469 25.703125 L 59.238281 25.703125 Z M 75.859375 15.8125 L 75.859375 14.269531 L 78.476562 14.269531 L 78.476562 25.707031 L 75.859375 25.707031 L 75.859375 24.15625 C 75.511719 24.730469 75.007812 25.175781 74.363281 25.492188 C 73.710938 25.828125 73.054688 25.988281 72.394531 25.988281 C 71.542969 25.988281 70.761719 25.828125 70.058594 25.511719 C 69.363281 25.203125 68.757812 24.769531 68.238281 24.203125 C 67.726562 23.640625 67.332031 23.007812 67.054688 22.296875 C 66.769531 21.550781 66.632812 20.78125 66.644531 19.980469 C 66.644531 19.179688 66.78125 18.410156 67.0625 17.695312 C 67.335938 16.972656 67.730469 16.328125 68.246094 15.761719 C 68.757812 15.191406 69.359375 14.753906 70.050781 14.4375 C 70.761719 14.121094 71.546875 13.960938 72.390625 13.960938 C 73.042969 13.960938 73.699219 14.128906 74.347656 14.453125 C 74.996094 14.78125 75.5 15.226562 75.839844 15.800781 Z M 75.625 21.386719 C 75.785156 20.933594 75.863281 20.46875 75.859375 19.988281 C 75.859375 19.492188 75.78125 19.035156 75.625 18.589844 C 75.476562 18.160156 75.253906 17.769531 74.957031 17.425781 C 74.65625 17.09375 74.300781 16.835938 73.898438 16.652344 C 73.492188 16.460938 73.039062 16.351562 72.546875 16.351562 C 72.046875 16.351562 71.597656 16.460938 71.191406 16.65625 C 70.796875 16.84375 70.453125 17.101562 70.15625 17.425781 C 69.859375 17.769531 69.640625 18.15625 69.496094 18.589844 C 69.34375 19.042969 69.269531 19.507812 69.273438 19.988281 C 69.273438 20.476562 69.347656 20.941406 69.496094 21.386719 C 69.652344 21.832031 69.871094 22.210938 70.15625 22.53125 C 70.449219 22.867188 70.796875 23.132812 71.191406 23.324219 C 71.597656 23.515625 72.046875 23.617188 72.546875 23.617188 C 73.042969 23.617188 73.492188 23.523438 73.902344 23.324219 C 74.308594 23.136719 74.664062 22.875 74.964844 22.535156 C 75.257812 22.199219 75.480469 21.816406 75.628906 21.394531 Z M 88.996094 14.269531 L 91.660156 14.269531 L 87.359375 25.707031 L 84.054688 25.707031 L 79.753906 14.269531 L 82.402344 14.269531 L 85.707031 23.027344 L 88.996094 14.273438 Z M 97.375 13.976562 C 100.945312 13.976562 103.382812 17.203125 102.921875 20.980469 L 94.214844 20.980469 C 94.214844 21.957031 95.199219 23.867188 97.515625 23.867188 C 99.511719 23.867188 100.851562 22.085938 100.851562 22.085938 L 102.621094 23.484375 C 101.03125 25.199219 99.734375 25.996094 97.699219 25.996094 C 94.070312 25.996094 91.613281 23.644531 91.613281 19.976562 C 91.613281 16.652344 94.15625 13.960938 97.367188 13.960938 Z M 94.226562 18.996094 L 100.519531 18.996094 C 100.496094 18.773438 100.148438 16.097656 97.355469 16.097656 C 94.550781 16.097656 94.25 18.78125 94.226562 18.996094 Z M 104.632812 25.691406 L 104.632812 8.527344 L 107.25 8.527344 L 107.25 25.703125 L 104.632812 25.703125 Z M 104.632812 25.691406 " fill-opacity="1" fill-rule="nonzero"/></g></svg>