<svg xmlns="http://www.w3.org/2000/svg" xmlns:xlink="http://www.w3.org/1999/xlink" width="40" zoomAndPan="magnify" viewBox="0 0 30 30.000001" height="40" preserveAspectRatio="xMidYMid meet" version="1.0"><defs><clipPath id="8aeeb8d5f3"><path d="M 22 8 L 25.976562 8 L 25.976562 21 L 22 21 Z M 22 8 " clip-rule="nonzero"/></clipPath><clipPath id="db92de0709"><path d="M 15 18 L 25.976562 18 L 25.976562 25.972656 L 15 25.972656 Z M 15 18 " clip-rule="nonzero"/></clipPath><clipPath id="4f2af32106"><path d="M 4.203125 18 L 15 18 L 15 25.972656 L 4.203125 25.972656 Z M 4.203125 18 " clip-rule="nonzero"/></clipPath><clipPath id="519b27b466"><path d="M 4.203125 8 L 8 8 L 8 21 L 4.203125 21 Z M 4.203125 8 " clip-rule="nonzero"/></clipPath><clipPath id="c006010e1e"><path d="M 4.203125 2.746094 L 15 2.746094 L 15 11 L 4.203125 11 Z M 4.203125 2.746094 " clip-rule="nonzero"/></clipPath><clipPath id="d9851da4ef"><path d="M 15 2.746094 L 25.976562 2.746094 L 25.976562 11 L 15 11 Z M 15 2.746094 " clip-rule="nonzero"/></clipPath></defs><path fill="#1b75bb" d="M 15.519531 20.882812 L 21.527344 17.699219 L 21.527344 11.398438 L 15.519531 14.738281 Z M 15.519531 20.882812 " fill-opacity="1" fill-rule="nonzero"/><g clip-path="url(#8aeeb8d5f3)"><path fill="#8ad0f3" d="M 25.964844 8.929688 L 22.386719 10.917969 L 22.386719 18.074219 L 25.964844 20.066406 Z M 25.964844 8.929688 " fill-opacity="1" fill-rule="nonzero"/></g><path fill="#1b75bb" d="M 21.125 10.667969 L 15.089844 7.472656 L 9.054688 10.667969 L 15.089844 14.019531 Z M 21.125 10.667969 " fill-opacity="1" fill-rule="nonzero"/><g clip-path="url(#db92de0709)"><path fill="#8ad0f3" d="M 21.609375 18.597656 L 15.519531 21.824219 L 15.519531 25.972656 L 25.296875 20.648438 Z M 21.609375 18.597656 " fill-opacity="1" fill-rule="nonzero"/></g><g clip-path="url(#4f2af32106)"><path fill="#8ad0f3" d="M 14.660156 21.824219 L 8.566406 18.597656 L 4.882812 20.648438 L 14.660156 25.972656 Z M 14.660156 21.824219 " fill-opacity="1" fill-rule="nonzero"/></g><g clip-path="url(#519b27b466)"><path fill="#8ad0f3" d="M 4.210938 20.066406 L 7.789062 18.074219 L 7.789062 10.917969 L 4.210938 8.929688 Z M 4.210938 20.066406 " fill-opacity="1" fill-rule="nonzero"/></g><g clip-path="url(#c006010e1e)"><path fill="#8ad0f3" d="M 8.1875 10.183594 L 14.660156 6.757812 L 14.660156 2.746094 L 4.632812 8.207031 Z M 8.1875 10.183594 " fill-opacity="1" fill-rule="nonzero"/></g><path fill="#1b75bb" d="M 14.660156 14.738281 L 8.648438 11.398438 L 8.648438 17.699219 L 14.660156 20.882812 Z M 14.660156 14.738281 " fill-opacity="1" fill-rule="nonzero"/><g clip-path="url(#d9851da4ef)"><path fill="#8ad0f3" d="M 15.519531 6.757812 L 21.992188 10.1875 L 25.546875 8.207031 L 15.519531 2.746094 Z M 15.519531 6.757812 " fill-opacity="1" fill-rule="nonzero"/></g></svg>