<svg xmlns="http://www.w3.org/2000/svg" xmlns:xlink="http://www.w3.org/1999/xlink" width="150" zoomAndPan="magnify" viewBox="0 0 112.5 32.999998" height="44" preserveAspectRatio="xMidYMid meet" version="1.0"><defs><clipPath id="1171b22cfd"><path d="M 4.351562 1.882812 L 16 1.882812 L 16 10 L 4.351562 10 Z M 4.351562 1.882812 " clip-rule="nonzero"/></clipPath><clipPath id="22776690ac"><path d="M 4.351562 5 L 17 5 L 17 31.003906 L 4.351562 31.003906 Z M 4.351562 5 " clip-rule="nonzero"/></clipPath><clipPath id="be0c4b3071"><path d="M 15 17 L 28 17 L 28 31.003906 L 15 31.003906 Z M 15 17 " clip-rule="nonzero"/></clipPath><clipPath id="fe677503c7"><path d="M 26 8 L 32.726562 8 L 32.726562 19 L 26 19 Z M 26 8 " clip-rule="nonzero"/></clipPath><clipPath id="f5b0c9c95c"><path d="M 20 5 L 32.726562 5 L 32.726562 13 L 20 13 Z M 20 5 " clip-rule="nonzero"/></clipPath><clipPath id="4e81e2616b"><path d="M 36.566406 8.527344 L 107.5 8.527344 L 107.5 26 L 36.566406 26 Z M 36.566406 8.527344 " clip-rule="nonzero"/></clipPath></defs><g clip-path="url(#1171b22cfd)"><path fill="#ffffff" d="M 10.246094 9.058594 C 10.179688 9.058594 10.109375 9.042969 10.050781 9.007812 L 10.011719 8.984375 L 4.546875 5.816406 C 4.429688 5.75 4.355469 5.621094 4.355469 5.484375 C 4.355469 5.347656 4.425781 5.21875 4.542969 5.148438 L 9.878906 1.957031 C 10.003906 1.886719 10.15625 1.886719 10.277344 1.957031 L 15.714844 5.21875 C 15.832031 5.289062 15.90625 5.414062 15.902344 5.550781 C 15.902344 5.6875 15.832031 5.816406 15.714844 5.886719 L 10.441406 9.003906 C 10.382812 9.042969 10.3125 9.058594 10.246094 9.058594 Z M 5.507812 5.476562 L 10.242188 8.222656 L 14.757812 5.550781 L 10.078125 2.746094 Z M 5.507812 5.476562 " fill-opacity="1" fill-rule="nonzero"/></g><g clip-path="url(#22776690ac)"><path fill="#ffffff" d="M 15.671875 31.109375 C 15.605469 31.109375 15.542969 31.09375 15.484375 31.0625 L 4.554688 24.996094 C 4.433594 24.925781 4.355469 24.796875 4.355469 24.65625 L 4.355469 5.480469 C 4.355469 5.34375 4.429688 5.214844 4.550781 5.144531 C 4.671875 5.074219 4.816406 5.078125 4.9375 5.144531 L 10.402344 8.3125 C 10.523438 8.382812 10.59375 8.511719 10.59375 8.648438 L 10.59375 21.210938 L 15.867188 24.28125 C 15.984375 24.351562 16.058594 24.480469 16.058594 24.617188 L 16.058594 30.722656 C 16.058594 30.859375 15.988281 30.988281 15.867188 31.054688 C 15.808594 31.09375 15.738281 31.109375 15.671875 31.109375 Z M 5.132812 24.425781 L 15.28125 30.0625 L 15.28125 24.839844 L 10.011719 21.769531 C 9.890625 21.699219 9.820312 21.574219 9.820312 21.433594 L 9.820312 8.875 L 5.132812 6.15625 Z M 5.132812 24.425781 " fill-opacity="1" fill-rule="nonzero"/></g><path fill="#ffffff" d="M 10.207031 21.824219 C 10.140625 21.824219 10.074219 21.804688 10.015625 21.773438 C 9.894531 21.703125 9.820312 21.574219 9.820312 21.433594 L 9.820312 8.648438 C 9.820312 8.511719 9.894531 8.382812 10.011719 8.3125 C 10.0625 8.285156 10.117188 8.265625 10.175781 8.261719 L 15.316406 5.21875 C 15.4375 5.144531 15.585938 5.144531 15.707031 5.210938 C 15.828125 5.28125 15.902344 5.40625 15.902344 5.546875 L 16.058594 18.171875 C 16.0625 18.3125 15.988281 18.441406 15.871094 18.511719 L 10.40625 21.769531 C 10.34375 21.804688 10.277344 21.824219 10.207031 21.824219 Z M 10.59375 8.914062 L 10.59375 20.75 L 15.28125 17.957031 L 15.136719 6.226562 Z M 10.59375 8.914062 " fill-opacity="1" fill-rule="nonzero"/><g clip-path="url(#be0c4b3071)"><path fill="#ffffff" d="M 15.671875 31.109375 C 15.601562 31.109375 15.535156 31.09375 15.472656 31.054688 C 15.355469 30.984375 15.28125 30.859375 15.28125 30.722656 L 15.28125 24.617188 C 15.28125 24.480469 15.355469 24.351562 15.476562 24.28125 L 26.601562 17.914062 C 26.71875 17.847656 26.867188 17.847656 26.988281 17.917969 C 27.105469 17.984375 27.179688 18.113281 27.179688 18.253906 L 27.179688 24.617188 C 27.179688 24.761719 27.105469 24.890625 26.980469 24.957031 L 15.859375 31.0625 C 15.800781 31.09375 15.734375 31.109375 15.671875 31.109375 Z M 16.058594 24.84375 L 16.058594 30.066406 L 26.402344 24.386719 L 26.402344 18.921875 Z M 16.058594 24.84375 " fill-opacity="1" fill-rule="nonzero"/></g><path fill="#ffffff" d="M 15.671875 25.007812 C 15.601562 25.007812 15.535156 24.988281 15.476562 24.953125 L 10.011719 21.769531 C 9.894531 21.703125 9.820312 21.574219 9.820312 21.4375 C 9.816406 21.300781 9.890625 21.171875 10.007812 21.101562 L 15.472656 17.84375 C 15.476562 17.839844 15.480469 17.839844 15.484375 17.835938 L 21.027344 14.804688 C 21.144531 14.738281 21.285156 14.738281 21.402344 14.804688 L 26.980469 17.914062 C 27.105469 17.980469 27.179688 18.109375 27.179688 18.25 C 27.183594 18.390625 27.105469 18.519531 26.984375 18.589844 L 15.863281 24.953125 C 15.804688 24.988281 15.738281 25.007812 15.671875 25.007812 Z M 10.972656 21.429688 L 15.671875 24.167969 L 26.003906 18.257812 L 21.210938 15.585938 L 15.863281 18.515625 Z M 10.972656 21.429688 " fill-opacity="1" fill-rule="nonzero"/><path fill="#ffffff" d="M 26.792969 18.640625 C 26.726562 18.640625 26.664062 18.625 26.605469 18.589844 L 21.023438 15.484375 C 20.902344 15.414062 20.824219 15.285156 20.824219 15.144531 L 20.84375 8.671875 C 20.84375 8.53125 20.917969 8.40625 21.039062 8.335938 C 21.15625 8.265625 21.304688 8.265625 21.425781 8.335938 L 26.984375 11.511719 C 27.105469 11.582031 27.179688 11.710938 27.179688 11.847656 L 27.179688 18.253906 C 27.179688 18.390625 27.109375 18.515625 26.988281 18.585938 C 26.929688 18.621094 26.859375 18.640625 26.792969 18.640625 Z M 21.601562 14.917969 L 26.402344 17.589844 L 26.402344 12.074219 L 21.617188 9.339844 Z M 21.601562 14.917969 " fill-opacity="1" fill-rule="nonzero"/><g clip-path="url(#fe677503c7)"><path fill="#ffffff" d="M 26.792969 18.640625 C 26.722656 18.640625 26.65625 18.621094 26.597656 18.585938 C 26.476562 18.515625 26.402344 18.390625 26.402344 18.253906 L 26.402344 11.847656 C 26.402344 11.710938 26.480469 11.582031 26.601562 11.511719 L 32.179688 8.335938 C 32.300781 8.265625 32.449219 8.265625 32.566406 8.335938 C 32.6875 8.40625 32.761719 8.535156 32.761719 8.671875 L 32.761719 15.144531 C 32.761719 15.285156 32.683594 15.414062 32.5625 15.484375 L 26.980469 18.589844 C 26.921875 18.625 26.859375 18.640625 26.792969 18.640625 Z M 27.179688 12.074219 L 27.179688 17.589844 L 31.984375 14.914062 L 31.984375 9.339844 Z M 27.179688 12.074219 " fill-opacity="1" fill-rule="nonzero"/></g><g clip-path="url(#f5b0c9c95c)"><path fill="#ffffff" d="M 26.792969 12.238281 C 26.726562 12.238281 26.660156 12.21875 26.601562 12.1875 L 21.039062 9.007812 C 20.917969 8.9375 20.84375 8.808594 20.84375 8.671875 C 20.84375 8.53125 20.917969 8.402344 21.042969 8.332031 L 26.601562 5.210938 C 26.71875 5.144531 26.863281 5.144531 26.980469 5.210938 L 32.5625 8.332031 C 32.683594 8.402344 32.761719 8.53125 32.761719 8.671875 C 32.761719 8.808594 32.6875 8.941406 32.5625 9.007812 L 26.984375 12.1875 C 26.925781 12.21875 26.859375 12.238281 26.792969 12.238281 Z M 22.019531 8.675781 L 26.792969 11.402344 L 31.582031 8.675781 L 26.792969 5.996094 Z M 22.019531 8.675781 " fill-opacity="1" fill-rule="nonzero"/></g><g clip-path="url(#4e81e2616b)"><path fill="#ffffff" d="M 39.589844 8.527344 L 39.589844 22.921875 L 44.796875 22.921875 L 44.796875 25.402344 L 36.816406 25.402344 L 36.816406 8.527344 Z M 54.574219 15.683594 L 54.574219 14.167969 L 57.210938 14.167969 L 57.210938 25.40625 L 54.589844 25.40625 L 54.589844 23.882812 C 54.226562 24.445312 53.726562 24.882812 53.078125 25.195312 C 52.429688 25.523438 51.765625 25.679688 51.109375 25.679688 C 50.253906 25.679688 49.472656 25.523438 48.769531 25.214844 C 48.070312 24.910156 47.464844 24.480469 46.945312 23.925781 C 46.433594 23.375 46.035156 22.753906 45.757812 22.054688 C 45.472656 21.324219 45.332031 20.566406 45.339844 19.78125 C 45.339844 18.992188 45.484375 18.238281 45.765625 17.53125 C 46.039062 16.824219 46.433594 16.191406 46.953125 15.632812 C 47.464844 15.074219 48.070312 14.644531 48.761719 14.335938 C 49.472656 14.023438 50.261719 13.867188 51.105469 13.867188 C 51.761719 13.867188 52.414062 14.03125 53.066406 14.347656 C 53.714844 14.671875 54.214844 15.109375 54.5625 15.671875 Z M 54.339844 21.160156 C 54.503906 20.71875 54.589844 20.257812 54.589844 19.785156 C 54.589844 19.300781 54.5 18.851562 54.339844 18.414062 C 54.1875 17.988281 53.964844 17.609375 53.664062 17.269531 C 53.367188 16.945312 53.015625 16.691406 52.617188 16.507812 C 52.183594 16.308594 51.730469 16.210938 51.253906 16.214844 C 50.753906 16.214844 50.304688 16.320312 49.90625 16.515625 C 49.511719 16.699219 49.164062 16.949219 48.867188 17.269531 C 48.570312 17.605469 48.351562 17.988281 48.207031 18.414062 C 48.050781 18.859375 47.972656 19.316406 47.976562 19.785156 C 47.976562 20.269531 48.050781 20.722656 48.207031 21.160156 C 48.355469 21.597656 48.582031 21.972656 48.867188 22.285156 C 49.160156 22.613281 49.507812 22.875 49.90625 23.066406 C 50.304688 23.253906 50.753906 23.351562 51.253906 23.351562 C 51.753906 23.351562 52.210938 23.257812 52.617188 23.066406 C 53.019531 22.878906 53.367188 22.621094 53.664062 22.289062 C 53.960938 21.960938 54.1875 21.585938 54.339844 21.167969 Z M 59.285156 25.40625 L 59.285156 14.167969 L 66.414062 14.167969 L 66.414062 16.753906 L 61.90625 16.753906 L 61.90625 25.402344 L 59.285156 25.402344 Z M 75.9375 15.683594 L 75.9375 14.167969 L 78.5625 14.167969 L 78.5625 25.40625 L 75.9375 25.40625 L 75.9375 23.882812 C 75.589844 24.445312 75.082031 24.882812 74.4375 25.195312 C 73.785156 25.523438 73.128906 25.679688 72.464844 25.679688 C 71.609375 25.679688 70.832031 25.523438 70.125 25.214844 C 69.425781 24.910156 68.820312 24.480469 68.300781 23.925781 C 67.789062 23.375 67.394531 22.753906 67.113281 22.054688 C 66.832031 21.324219 66.691406 20.566406 66.703125 19.78125 C 66.703125 18.992188 66.839844 18.238281 67.121094 17.53125 C 67.394531 16.824219 67.792969 16.191406 68.308594 15.632812 C 68.820312 15.074219 69.425781 14.644531 70.117188 14.335938 C 70.832031 14.023438 71.617188 13.867188 72.460938 13.867188 C 73.117188 13.867188 73.769531 14.03125 74.421875 14.347656 C 75.070312 14.671875 75.574219 15.109375 75.917969 15.671875 Z M 75.699219 21.160156 C 75.863281 20.71875 75.941406 20.257812 75.9375 19.785156 C 75.9375 19.300781 75.855469 18.851562 75.699219 18.414062 C 75.550781 17.988281 75.328125 17.609375 75.03125 17.269531 C 74.730469 16.945312 74.375 16.691406 73.972656 16.507812 C 73.566406 16.320312 73.109375 16.214844 72.617188 16.214844 C 72.117188 16.214844 71.667969 16.320312 71.261719 16.515625 C 70.867188 16.699219 70.519531 16.949219 70.222656 17.269531 C 69.925781 17.605469 69.707031 17.988281 69.5625 18.414062 C 69.410156 18.859375 69.332031 19.316406 69.335938 19.785156 C 69.335938 20.269531 69.414062 20.722656 69.5625 21.160156 C 69.71875 21.597656 69.9375 21.972656 70.222656 22.285156 C 70.519531 22.613281 70.863281 22.875 71.261719 23.066406 C 71.667969 23.253906 72.117188 23.351562 72.617188 23.351562 C 73.117188 23.351562 73.566406 23.257812 73.976562 23.066406 C 74.382812 22.878906 74.738281 22.621094 75.039062 22.289062 C 75.332031 21.957031 75.554688 21.585938 75.707031 21.167969 Z M 89.101562 14.167969 L 91.765625 14.167969 L 87.457031 25.40625 L 84.148438 25.40625 L 79.839844 14.167969 L 82.496094 14.167969 L 85.804688 22.773438 L 89.101562 14.171875 Z M 97.492188 13.878906 C 101.070312 13.878906 103.511719 17.050781 103.050781 20.761719 L 94.328125 20.761719 C 94.328125 21.722656 95.3125 23.597656 97.636719 23.597656 C 99.636719 23.597656 100.976562 21.847656 100.976562 21.847656 L 102.75 23.222656 C 101.160156 24.90625 99.859375 25.6875 97.816406 25.6875 C 94.183594 25.6875 91.722656 23.378906 91.722656 19.773438 C 91.722656 16.507812 94.269531 13.867188 97.488281 13.867188 Z M 94.339844 18.8125 L 100.648438 18.8125 C 100.621094 18.59375 100.273438 15.964844 97.476562 15.964844 C 94.664062 15.964844 94.363281 18.601562 94.339844 18.8125 Z M 104.769531 25.386719 L 104.769531 8.527344 L 107.390625 8.527344 L 107.390625 25.402344 L 104.769531 25.402344 Z M 104.769531 25.386719 " fill-opacity="1" fill-rule="nonzero"/></g></svg>