<svg xmlns="http://www.w3.org/2000/svg" xmlns:xlink="http://www.w3.org/1999/xlink" width="150" zoomAndPan="magnify" viewBox="0 0 112.5 32.999998" height="44" preserveAspectRatio="xMidYMid meet" version="1.0"><defs><g/><clipPath id="5f2e3e080e"><path d="M 29 9 L 33.484375 9 L 33.484375 24 L 29 24 Z M 29 9 " clip-rule="nonzero"/></clipPath><clipPath id="b776e183eb"><path d="M 20 22 L 33 22 L 33 31.527344 L 20 31.527344 Z M 20 22 " clip-rule="nonzero"/></clipPath><clipPath id="f40731dc4b"><path d="M 7 22 L 20 22 L 20 31.527344 L 7 31.527344 Z M 7 22 " clip-rule="nonzero"/></clipPath><clipPath id="7c710229c6"><path d="M 6.605469 9 L 12 9 L 12 24 L 6.605469 24 Z M 6.605469 9 " clip-rule="nonzero"/></clipPath><clipPath id="eecd302260"><path d="M 7 1.660156 L 20 1.660156 L 20 12 L 7 12 Z M 7 1.660156 " clip-rule="nonzero"/></clipPath><clipPath id="93d9110928"><path d="M 20 1.660156 L 33 1.660156 L 33 12 L 20 12 Z M 20 1.660156 " clip-rule="nonzero"/></clipPath></defs><path fill="#1b75bb" d="M 20.574219 24.980469 L 27.996094 20.890625 L 27.996094 12.785156 L 20.574219 17.078125 Z M 20.574219 24.980469 " fill-opacity="1" fill-rule="nonzero"/><g clip-path="url(#5f2e3e080e)"><path fill="#8ad0f3" d="M 33.472656 9.609375 L 29.054688 12.167969 L 29.054688 21.371094 L 33.472656 23.929688 Z M 33.472656 9.609375 " fill-opacity="1" fill-rule="nonzero"/></g><path fill="#1b75bb" d="M 27.5 11.84375 L 20.046875 7.734375 L 12.597656 11.84375 L 20.046875 16.15625 Z M 27.5 11.84375 " fill-opacity="1" fill-rule="nonzero"/><g clip-path="url(#b776e183eb)"><path fill="#8ad0f3" d="M 28.097656 22.042969 L 20.574219 26.191406 L 20.574219 31.527344 L 32.648438 24.679688 Z M 28.097656 22.042969 " fill-opacity="1" fill-rule="nonzero"/></g><g clip-path="url(#f40731dc4b)"><path fill="#8ad0f3" d="M 19.515625 26.191406 L 11.996094 22.042969 L 7.441406 24.679688 L 19.515625 31.527344 Z M 19.515625 26.191406 " fill-opacity="1" fill-rule="nonzero"/></g><g clip-path="url(#7c710229c6)"><path fill="#8ad0f3" d="M 6.617188 23.929688 L 11.035156 21.371094 L 11.035156 12.167969 L 6.617188 9.609375 Z M 6.617188 23.929688 " fill-opacity="1" fill-rule="nonzero"/></g><g clip-path="url(#eecd302260)"><path fill="#8ad0f3" d="M 11.523438 11.222656 L 19.515625 6.816406 L 19.515625 1.660156 L 7.132812 8.683594 Z M 11.523438 11.222656 " fill-opacity="1" fill-rule="nonzero"/></g><path fill="#1b75bb" d="M 19.515625 17.078125 L 12.097656 12.785156 L 12.097656 20.890625 L 19.515625 24.980469 Z M 19.515625 17.078125 " fill-opacity="1" fill-rule="nonzero"/><g clip-path="url(#93d9110928)"><path fill="#8ad0f3" d="M 20.574219 6.816406 L 28.566406 11.226562 L 32.957031 8.683594 L 20.574219 1.660156 Z M 20.574219 6.816406 " fill-opacity="1" fill-rule="nonzero"/></g><g fill="#ffffff" fill-opacity="1"><g transform="translate(39.222757, 27.923188)"><g><path d="M 7.007812 -20.839844 L 0.261719 -20.839844 C 0.128906 -20.839844 0 -20.710938 0 -20.605469 L 0 -17.011719 L 7.007812 -17.011719 C 7.476562 -17.011719 10.082031 -16.882812 10.082031 -14.589844 C 10.082031 -12.296875 7.527344 -12.242188 7.007812 -12.242188 L 0 -12.242188 L 0 -0.234375 C 0 -0.128906 0.128906 0 0.261719 0 L 3.648438 0 C 3.828125 0 3.90625 -0.128906 3.90625 -0.234375 L 3.90625 -8.386719 L 7.007812 -8.386719 C 7.503906 -8.386719 14.042969 -8.464844 14.042969 -14.589844 C 14.042969 -20.710938 7.839844 -20.839844 7.007812 -20.839844 Z M 7.007812 -20.839844 "/></g></g></g><g fill="#ffffff" fill-opacity="1"><g transform="translate(53.967634, 27.923188)"><g><path d="M 16.359375 -0.3125 L 8.441406 -20.683594 C 8.363281 -20.894531 7.996094 -20.894531 7.917969 -20.683594 L 0.0273438 -0.3125 C -0.0507812 -0.15625 0.0507812 0 0.285156 0 L 3.855469 0 C 3.960938 0 4.089844 -0.0507812 4.117188 -0.15625 L 8.179688 -11.773438 L 12.296875 -0.15625 C 12.320312 -0.0507812 12.453125 0 12.53125 0 L 16.125 0 C 16.308594 0 16.4375 -0.15625 16.359375 -0.3125 Z M 16.359375 -0.3125 "/></g></g></g><g fill="#ffffff" fill-opacity="1"><g transform="translate(71.161311, 27.923188)"><g><path d="M 11.90625 -3.828125 C 9.378906 -3.726562 4.011719 -3.984375 4.011719 -10.421875 C 4.011719 -15.371094 7.371094 -17.273438 11.90625 -17.039062 L 11.90625 -12.425781 L 15.890625 -12.425781 L 15.890625 -20.605469 C 15.890625 -20.710938 15.785156 -20.839844 15.605469 -20.839844 L 12.21875 -20.839844 C 7.113281 -20.839844 0 -19.667969 0 -10.421875 C 0 -1.511719 7.035156 0 12.21875 0 L 15.605469 0 C 15.785156 0 15.890625 -0.128906 15.890625 -0.234375 L 15.890625 -3.828125 Z M 11.90625 -3.828125 "/></g></g></g><g fill="#ffffff" fill-opacity="1"><g transform="translate(87.860018, 27.923188)"><g><path d="M 16.621094 -0.390625 L 8.257812 -10.238281 L 16.542969 -20.449219 C 16.726562 -20.632812 16.59375 -20.839844 16.308594 -20.839844 L 12.0625 -20.839844 C 12.007812 -20.839844 11.851562 -20.789062 11.828125 -20.761719 L 3.984375 -11.125 L 3.984375 -20.605469 C 3.984375 -20.710938 3.882812 -20.839844 3.726562 -20.839844 L 0.285156 -20.839844 C 0.128906 -20.839844 0 -20.710938 0 -20.605469 L 0 -1.277344 C 0 -1.277344 5.078125 -7.035156 5.601562 -7.582031 L 11.671875 -0.078125 C 11.695312 -0.0507812 11.851562 0 11.90625 0 L 16.386719 0 C 16.648438 0 16.777344 -0.183594 16.621094 -0.390625 Z M 16.621094 -0.390625 "/></g></g></g></svg>